<?xml version="1.0" encoding="UTF-8" standalone="no"?>
<!DOCTYPE svg PUBLIC "-//W3C//DTD SVG 1.1//EN" "http://www.w3.org/Graphics/SVG/1.1/DTD/svg11.dtd">
<svg width="100%" height="100%" viewBox="0 0 64 64" version="1.1" xmlns="http://www.w3.org/2000/svg" xmlns:xlink="http://www.w3.org/1999/xlink" xml:space="preserve" style="fill-rule:evenodd;clip-rule:evenodd;stroke-linejoin:round;stroke-miterlimit:1.41421;">
    <g transform="matrix(1.15338,0,0,1.15338,-4.90801,2.10307)">
        <path id="_-Curves-" d="M32,2C17.635,2 5.989,13.665 5.989,28.056C5.989,37.168 10.66,45.185 17.732,49.843L18.474,46.627L18.74,45.391C13.547,41.399 10.198,35.119 10.198,28.056C10.198,15.994 19.959,6.216 32,6.216C44.041,6.216 53.802,15.994 53.802,28.056C53.802,35.097 50.475,41.358 45.311,45.352L45.469,45.94L46.531,49.669C53.456,44.988 58.011,37.054 58.011,28.056C58.011,13.665 46.365,2 32,2ZM19.591,41.433L20.526,37.083C18.484,34.549 17.258,31.326 17.258,27.815C17.258,19.659 23.858,13.048 32,13.048C40.142,13.048 46.742,19.659 46.742,27.815C46.742,31.489 45.399,34.847 43.183,37.432L44.287,41.542C48.043,38.166 50.408,33.268 50.408,27.815C50.408,17.631 42.166,9.376 32,9.376C21.834,9.376 13.592,17.631 13.592,27.815C13.592,33.209 15.905,38.061 19.591,41.433Z" style="fill:rgb(71,84,111);"/>
        <g transform="matrix(0.366205,1.11274e-64,0,0.366205,20.2814,20.2814)">
            <path d="M59.685,0.5L60.869,0.5C62.239,1.009 62.586,2.556 62.114,3.827C59.111,15.262 55.867,26.632 52.668,38.01C50.812,44.498 48.952,51.013 46.326,57.241C45.134,60.056 43.206,63.232 39.823,63.5L38.902,63.5C36.937,63.262 35.19,61.98 34.36,60.188C32.666,56.762 33.213,52.847 33.213,49.165C33.251,42.337 33.794,35.505 33.572,28.68C30.957,34.241 28.803,40.02 25.914,45.453C24.816,47.388 23.56,49.704 21.202,50.229C18.927,50.783 16.611,49.093 16.056,46.897C15.068,43.223 15.471,39.368 15.453,35.606C15.415,32.113 15.702,28.616 15.471,25.127C13.627,29.571 12.208,34.18 10.356,38.624C9.915,39.617 9.405,40.639 8.545,41.337C7.496,42.227 5.765,42.144 4.803,41.156C3.894,40.296 3.656,39.005 3.335,37.847C2.671,34.92 2.057,31.977 1.687,28.997L1.687,28.435C2.034,27.092 3.848,26.473 4.81,27.556C5.957,29.291 6.244,31.423 6.953,33.347C8.443,28.85 9.7,24.278 11.209,19.789C11.922,17.812 12.721,15.711 14.396,14.341C15.822,13.172 18.082,13.164 19.455,14.428C20.847,15.703 21.315,17.634 21.632,19.423C22.288,23.753 22.032,28.152 22.39,32.502C23.231,30.729 23.767,28.835 24.423,26.99C26.14,22.071 27.834,17.144 29.675,12.27C30.441,10.229 31.625,8.26 33.443,7.004C35.68,5.419 38.932,5.472 41.117,7.132C43.157,8.63 43.946,11.255 44.04,13.689C44.082,20.954 43.852,28.228 44.089,35.493C44.923,34.037 45.493,32.453 46.134,30.91C49.903,21.78 53.69,12.662 57.478,3.544C57.972,2.382 58.36,0.972 59.685,0.5L59.685,0.5Z" style="fill:rgb(251,0,55);fill-rule:nonzero;"/>
        </g>
    </g>
</svg>
