<?xml version="1.0" standalone="no"?>
<!DOCTYPE svg PUBLIC "-//W3C//DTD SVG 1.1//EN" "http://www.w3.org/Graphics/SVG/1.1/DTD/svg11.dtd">
<svg style="fill-rule:evenodd;clip-rule:evenodd;stroke-linejoin:round;stroke-miterlimit:1.41421;" version="1.1" width="64pt" height="64pt" viewBox="0 0 64 64" xml:space="preserve" xmlns:xlink="http://www.w3.org/1999/xlink"
  xmlns="http://www.w3.org/2000/svg"><path
  d="M59.685,0.5l1.184,0c1.37,0.509 1.717,2.056 1.245,3.327c-3.003,11.435 -6.247,22.805 -9.446,34.183c-1.856,6.488 -3.716,13.003 -6.342,19.231c-1.192,2.815 -3.12,5.991 -6.503,6.259l-0.921,0c-1.965,-0.238 -3.712,-1.52 -4.542,-3.312c-1.694,-3.426 -1.147,-7.341 -1.147,-11.023c0.038,-6.828 0.581,-13.66 0.359,-20.485c-2.615,5.561 -4.769,11.34 -7.658,16.773c-1.098,1.935 -2.354,4.251 -4.712,4.776c-2.275,0.554 -4.591,-1.136 -5.146,-3.332c-0.988,-3.674 -0.585,-7.529 -0.603,-11.291c-0.038,-3.493 0.249,-6.99 0.018,-10.479c-1.844,4.444 -3.263,9.053 -5.115,13.497c-0.441,0.993 -0.951,2.015 -1.811,2.713c-1.049,0.89 -2.78,0.807 -3.742,-0.181c-0.909,-0.86 -1.147,-2.151 -1.468,-3.309c-0.664,-2.927 -1.278,-5.87 -1.648,-8.85l0,-0.562c0.347,-1.343 2.161,-1.962 3.123,-0.879c1.147,1.735 1.434,3.867 2.143,5.791c1.49,-4.497 2.747,-9.069 4.256,-13.558c0.713,-1.977 1.512,-4.078 3.187,-5.448c1.426,-1.169 3.686,-1.177 5.059,0.087c1.392,1.275 1.86,3.206 2.177,4.995c0.656,4.33 0.4,8.729 0.758,13.079c0.841,-1.773 1.377,-3.667 2.033,-5.512c1.717,-4.919 3.411,-9.846 5.252,-14.72c0.766,-2.041 1.95,-4.01 3.768,-5.266c2.237,-1.585 5.489,-1.532 7.674,0.128c2.04,1.498 2.829,4.123 2.923,6.557c0.042,7.265 -0.188,14.539 0.049,21.804c0.834,-1.456 1.404,-3.04 2.045,-4.583c3.769,-9.13 7.556,-18.248 11.344,-27.366c0.494,-1.162 0.882,-2.572 2.207,-3.044Z"
  style="fill:#fb0037;fill-rule:nonzero;"/></svg>
