<?xml version="1.0" encoding="UTF-8" standalone="no"?>
<!DOCTYPE svg PUBLIC "-//W3C//DTD SVG 1.1//EN" "http://www.w3.org/Graphics/SVG/1.1/DTD/svg11.dtd">
<svg width="100%" height="100%" viewBox="0 0 417 80" version="1.1" xmlns="http://www.w3.org/2000/svg" xmlns:xlink="http://www.w3.org/1999/xlink" xml:space="preserve" style="fill-rule:evenodd;clip-rule:evenodd;stroke-linejoin:round;stroke-miterlimit:1.41421;">
    <g transform="matrix(0.716201,0,0,0.716201,2.84217e-14,-0.495656)">
        <g>
            <path d="M87.689,2.986L63.5,2.986L63.5,64.417C63.5,83.083 56.495,91.867 43.765,91.867C31.348,91.867 24.345,82.607 24.345,64.417L24.345,2.986L0,2.986L0,62.532C0,96.256 15.912,111 42.969,111C70.98,111 87.689,95.476 87.689,62.846L87.689,2.986ZM575.879,1.618L544.179,1.618L532.712,37.323C529.212,49.277 525.544,63.456 522.518,75.888L522.039,75.888C519.654,63.3 516.307,49.75 512.963,37.485L502.45,1.618L470.111,1.618L464.516,89.425L437.538,1.712L405.925,1.712L379.4,89.206L338.68,89.206L338.68,63.708L378.171,63.708L378.171,43.946L338.68,43.946L338.68,21.638L380.566,21.638L380.566,1.712L314.314,1.712L314.314,21.473C312.693,16.536 309.812,12.497 305.831,9.366C298.058,3.308 286.716,0.921 270.523,0.921C258.669,0.921 148.449,1.167 137.809,1.167C112.096,1.167 96.574,14.282 96.574,32.387C96.574,47.817 108.378,57.583 126.489,63.721C139.588,68.292 144.762,72.069 144.762,78.683C144.762,85.611 138.782,90.178 127.458,90.178C116.949,90.178 105.24,89.517 93.348,89.517C89.754,99.29 84.542,105.241 77.789,109.688C103.311,109.688 113.551,109.834 126.003,109.834C155.916,109.834 169.988,94.743 169.988,76.953C169.988,61.993 160.935,52.225 141.691,45.302C127.626,40.105 121.473,37.109 121.473,30.34C121.473,24.831 126.651,21.968 137.321,21.968C147.996,21.968 143.07,22.023 161.694,22.023L190.103,22.023L190.103,109.037L214.11,109.037L214.11,22.023L237.648,22.023L237.648,109.126L262.099,109.126L262.099,66.899L269.551,66.899C279.597,67.062 284.289,70.722 287.208,84.109C290.449,97.335 293.034,105.941 294.819,109.126L398.341,109.126L405.925,81.558L436.437,81.558L444.649,109.126L470.572,109.126L470.55,109.037L485.726,109.037L487.639,68.24C488.431,54.851 488.911,38.278 489.549,23.78L489.864,23.78C492.411,37.798 496.073,53.098 499.586,65.845L511.051,107.286L529.999,107.286L543.062,65.374C547.211,52.78 551.669,37.485 555.012,23.78L555.494,23.78C555.494,39.392 555.97,55.009 556.445,67.92L558.039,109.037L581.773,109.037L575.879,1.618ZM271.816,49.368L262.099,49.368L262.099,19.727C263.885,19.403 267.286,18.931 273.274,18.931C284.614,19.091 291.42,24.027 291.42,33.908C291.42,43.31 284.128,49.368 271.816,49.368ZM314.314,90.368C313.294,86.58 312.238,82.623 311.173,78.848C308.421,68.971 304.212,61.8 296.599,58.774L296.599,58.295C303.748,55.746 311.172,49.691 314.314,40.903L314.314,90.368ZM409.403,63.389L415.724,40.606C417.464,34.388 419.047,26.259 420.627,19.884L420.939,19.884C422.525,26.259 424.421,34.223 426.317,40.606L432.959,63.389L409.403,63.389Z" style="fill:rgb(46,124,193);fill-rule:nonzero;"/>
        </g>
    </g>
</svg>
